<svg width="16" height="16" viewBox="0 0 16 16" fill="none" xmlns="http://www.w3.org/2000/svg">
<path fill-rule="evenodd" clip-rule="evenodd" d="M13.1333 9.4C12.0667 9.4 10.7333 9.6 10.4 9.66667C8.53333 7.66667 8.06667 6.53333 8 6.33333C8.13333 6.06667 8.66667 4.53333 8.73333 2.53333C8.8 1.6 8.6 0.866667 8.2 0.466667C7.8 0.0666666 7.4 0 7.2 0C6.4 0 6 0.666667 6 1.93333C6 3.53333 6.8 5.26667 6.93333 5.53333C5.8 8.8 4.66667 11 4.46667 11.3333C0.2 13 0 14.6 0 14.8667C0 15.6 0.533333 16 1.33333 16C3.53333 16 5.6 12 5.86667 11.5333C7.53333 10.8667 9.8 10.4667 10.2667 10.3333C11.8 11.8667 13.5333 12.2667 14.2667 12.2667C14.8667 12.2667 16 12.2667 16 11.0667C16 9.8 14.4667 9.4 13.1333 9.4ZM14.6667 10.8C14.6667 10.9333 14.6 11.5333 13.8667 11.5333C13.2 11.5333 12 11.1333 10.9333 10.2C11.3333 10.1333 12.0667 10.0667 13 10.0667C14.3333 10 14.6667 10.4667 14.6667 10.8ZM6.8 0.866667C6.86667 0.733333 7 0.666667 7.2 0.666667C7.33333 0.666667 7.46667 0.733333 7.53333 0.8C8 1.46667 7.53333 3.6 7.2 4.73333C6.73333 3.66667 6.33333 1.6 6.8 0.866667ZM9.66667 9.8C8 10.1333 6.8 10.5333 6.26667 10.6667C6.8 9.66667 7.46667 7.86667 7.66667 7.13333C8.33333 8.33333 9.26667 9.4 9.66667 9.8ZM3.93333 12.2667C3.6 12.8 2.93333 13.9333 2.2 14.6667C1.66667 15.1333 1.33333 15.3333 1.06667 15.3333C0.933333 15.3333 0.8 15.2667 0.666667 15.0667C0.6 15 0.6 14.8667 0.6 14.7333C0.733333 14.2 1.73333 13.2667 3.93333 12.2667Z" fill="#1274B8"/>
</svg>
